<?xml version="1.0" encoding="UTF-8" standalone="no"?>
<!DOCTYPE svg PUBLIC "-//W3C//DTD SVG 1.1//EN" "http://www.w3.org/Graphics/SVG/1.1/DTD/svg11.dtd">
<svg version="1.1" xmlns="http://www.w3.org/2000/svg" xmlns:xlink="http://www.w3.org/1999/xlink" preserveAspectRatio="xMidYMid meet" viewBox="0 0 640 640" width="640" height="640"><defs><path d="M592.04 296.22C592.04 439.47 472.31 555.77 324.84 555.77C177.36 555.77 57.63 439.47 57.63 296.22C57.63 152.97 177.36 36.67 324.84 36.67C472.31 36.67 592.04 152.97 592.04 296.22Z" id="b712jvVUWb"></path><path d="M580.75 303.79C580.75 450.49 461.65 569.59 314.96 569.59C168.26 569.59 49.16 450.49 49.16 303.79C49.16 157.09 168.26 37.99 314.96 37.99C461.65 37.99 580.75 157.09 580.75 303.79Z" id="a4xgUjaxV9"></path><path d="M251.52 188.53L388.48 188.53L388.48 539.06L251.52 539.06L251.52 188.53Z" id="e6P20BD8Q"></path><path d="M73.23 100.11L566.77 100.11L566.77 450.65L73.23 450.65L73.23 100.11Z" id="a1CGAJ7U0i"></path><path d="M63.48 109.46L557.02 109.46L557.02 459.99L63.48 459.99L63.48 109.46Z" id="e2jQxAbEj8"></path><path d="M376.48 380.92L492.61 287.95L366.81 206.17" id="g2fjb8qS0Z"></path><path d="M251.93 204.65L135.8 297.62L261.61 379.4" id="b68KIq2Mqj"></path><path d="M421.08 534.36L218.92 534.36" id="ahfBMmMA"></path><path d="M251.93 216.41L135.8 309.38L261.61 391.16" id="aUnKOkTaD"></path><path d="M376.48 391.16L492.61 298.19L366.81 216.41" id="a4bfN2EmuC"></path><path d="M421.08 539.06L218.92 539.06" id="e68cBNjV3k"></path></defs><g><g><g><use xlink:href="#b712jvVUWb" opacity="1" fill="#4097aa" fill-opacity="1"></use></g><g><g><use xlink:href="#a4xgUjaxV9" opacity="1" fill-opacity="0" stroke="#000000" stroke-width="5" stroke-opacity="1"></use></g></g><g><use xlink:href="#e6P20BD8Q" opacity="1" fill="#f2a194" fill-opacity="1"></use></g><g><use xlink:href="#a1CGAJ7U0i" opacity="1" fill="#f3deca" fill-opacity="1"></use></g><g><g><use xlink:href="#e2jQxAbEj8" opacity="1" fill-opacity="0" stroke="#000000" stroke-width="5" stroke-opacity="1"></use></g></g><g><g><use xlink:href="#g2fjb8qS0Z" opacity="1" fill-opacity="0" stroke="#000000" stroke-width="15" stroke-opacity="1"></use></g></g><g><g><use xlink:href="#b68KIq2Mqj" opacity="1" fill-opacity="0" stroke="#000000" stroke-width="15" stroke-opacity="1"></use></g></g><g><g><use xlink:href="#ahfBMmMA" opacity="1" fill-opacity="0" stroke="#f2a194" stroke-width="15" stroke-opacity="1"></use></g></g><g><g><use xlink:href="#aUnKOkTaD" opacity="1" fill-opacity="0" stroke="#f2a194" stroke-width="15" stroke-opacity="1"></use></g></g><g><g><use xlink:href="#a4bfN2EmuC" opacity="1" fill-opacity="0" stroke="#f2a194" stroke-width="15" stroke-opacity="1"></use></g></g><g><g><use xlink:href="#e68cBNjV3k" opacity="1" fill-opacity="0" stroke="#000000" stroke-width="15" stroke-opacity="1"></use></g></g></g></g></svg>